<svg width="145" height="152" viewBox="0 0 145 152" fill="none" xmlns="http://www.w3.org/2000/svg">
<g id="Arrow 11" clip-path="url(#clip0_83_83)">
<path id="Arrow 11_2" d="M52.429 94.0677C55.2226 94.438 58.5341 95.2892 61.6869 95.2272C68.2944 95.0552 74.8489 94.5788 81.4035 94.1024C93.8275 93.1331 106.362 92.0838 119.883 91.0031C112.079 85.3585 101.915 84.3426 96.9889 74.5503C98.8815 74.3753 100.146 73.7993 100.774 74.2002C110.658 80.3909 121.489 84.179 132.545 87.1181C141.602 89.6233 142.481 93.6132 135.891 99.601C128.971 105.829 122.622 112.842 115.946 119.407C114.897 120.511 113.249 121.023 111.625 122.031C110.323 115.606 110.323 115.606 123.802 99.6412C121.718 99.7841 120.046 99.799 118.455 99.9262C102.299 101.55 86.2243 103.286 70.0152 104.605C64.7495 105.002 59.378 104.791 54.2026 103.922C45.002 102.378 40.9017 96.2712 42.8515 87.1402C43.8407 82.4786 45.98 78.01 48.2823 73.7657C50.8622 68.977 54.2617 64.6213 57.1149 59.977C59.0823 56.6618 60.695 53.09 62.6096 49.4704C58.7605 46.9526 55.2486 47.447 51.794 47.5569C37.18 48.0601 23.1279 50.7266 9.20137 55.1876C7.55336 55.6992 5.95822 56.5153 4.17582 56.6103C3.18877 56.6417 1.74125 55.8076 1.08909 54.91C0.763004 54.4612 1.32261 52.6831 1.90205 52.0907C3.69325 50.6179 5.86782 49.2094 7.95647 48.3777C22.9075 42.3152 38.5261 39.0249 54.6735 38.779C57.9365 38.6369 61.3052 39.1037 64.425 39.9228C70.0895 41.4645 72.6695 45.2473 71.2352 50.9179C70.0543 55.5474 67.8335 59.9038 65.4497 64.0358C61.9841 70.1538 57.809 75.7586 54.3434 81.8765C52.5677 85.2239 50.8448 88.8757 52.429 94.0677Z" fill="white"/>
</g>
<defs>
<clipPath id="clip0_83_83">
<rect width="121.62" height="90.868" fill="white" transform="translate(73.5137) rotate(54)"/>
</clipPath>
</defs>
</svg>
