<svg width="20" height="62" viewBox="0 0 20 62" fill="none" xmlns="http://www.w3.org/2000/svg">
<g id="Arrow 12" clip-path="url(#clip0_83_76)">
<path id="Arrow 12_2" d="M12.367 50.111C13.3849 48.1395 14.1723 46.6344 14.9116 45.1823C15.1902 44.6629 15.4179 44.1462 15.7499 43.6745C16.173 42.9961 16.6338 42.0634 17.6258 42.5162C18.567 42.9716 18.2105 43.9494 17.9933 44.6675C17.8296 45.4332 17.4626 46.2096 17.1438 46.933C15.7398 50.2876 14.2849 53.6449 12.8274 56.9519C12.4149 57.8316 12.0558 58.759 11.4855 59.5461C10.3502 61.2209 9.12517 61.1841 8.11803 59.4702C6.7743 57.1681 5.52957 54.8104 4.28485 52.4528C3.72386 51.4726 3.16024 50.4421 2.74908 49.4036C2.51413 48.8102 2.52801 48.1028 2.44289 47.4511C3.85537 47.1751 4.20252 47.9646 4.59521 48.6507C5.65317 50.3619 6.66295 52.1262 7.72091 53.8375C8.10833 54.4229 8.49838 55.0587 9.3432 55.6201C9.39736 54.7087 9.50497 53.8449 9.50831 52.9362C9.50791 46.1217 9.51016 39.3576 9.50976 32.5431C9.5009 22.65 9.49468 12.8072 9.53664 2.91137C9.54525 2.10328 9.80798 1.28186 10.012 0.3121C11.4317 1.14629 11.1821 2.2194 11.1762 3.07784C11.3278 7.91574 11.3804 12.8093 11.4812 17.6499C11.6715 28.0888 11.8619 38.5277 12.0522 48.9666C12.1162 49.2156 12.175 49.3639 12.367 50.111Z" fill="white"/>
</g>
<defs>
<clipPath id="clip0_83_76">
<rect width="60.3739" height="15.9883" fill="white" transform="translate(3.15967 61.1279) rotate(-93)"/>
</clipPath>
</defs>
</svg>
