<svg width="511" height="23" viewBox="0 0 511 23" fill="none" xmlns="http://www.w3.org/2000/svg">
<path fill-rule="evenodd" clip-rule="evenodd" d="M90.8468 8.22804C85.268 9.19127 80.0321 10.5858 75.3104 12.541C74.7961 12.7566 74.6402 13.0585 74.5934 13.1879C74.5155 13.4179 74.5468 13.6336 74.6714 13.8349C74.7493 13.9643 74.8741 14.1225 75.139 14.2231C75.326 14.295 75.809 14.3524 76.4479 14.3381C77.5387 14.3237 79.2218 14.2087 80.0321 14.2087C82.8059 14.2375 85.5797 14.223 88.3535 14.2661C97.1891 14.4099 98.7318 14.5249 110.092 14.4386C123.353 14.338 136.646 14.1655 149.923 13.9067C107.723 16.0632 65.5865 18.5791 23.6677 20.9224C23.2002 20.9512 22.8418 21.3251 22.873 21.7564C22.8886 22.2021 23.3092 22.5327 23.7767 22.504C121.592 17.0409 220.483 10.6001 319.047 10.1832C323.909 10.2839 328.755 10.3844 333.586 10.4851C362.773 11.1176 391.976 11.8797 421.132 13.0585C430.622 13.4467 440.112 13.878 449.618 14.2805C452.423 14.3955 455.244 14.5105 458.064 14.6255C460.339 14.7118 466.199 15.0281 467.024 15.0425C467.772 15.0569 467.959 14.4388 467.975 14.41C468.022 14.2087 467.991 13.9786 467.804 13.763C467.757 13.7055 467.632 13.5474 467.352 13.4755C467.305 13.4755 467.087 13.4467 466.635 13.4035C443.198 11.6352 419.698 10.4132 396.152 9.63691C399.316 9.66566 402.479 9.68011 405.642 9.70886C430.03 9.88138 454.48 10.4996 478.852 9.70886C484.4 9.53635 489.963 9.335 495.495 9.0906C499.219 8.93246 508.803 9.13375 510.159 8.75996C510.782 8.60182 510.922 8.19924 510.938 7.99797C510.953 7.76794 510.907 7.50917 510.626 7.27914C510.501 7.16413 510.112 6.97733 509.379 6.83356C485.459 2.04619 457.472 3.39748 433.115 2.06047C366.965 -1.60554 301.048 0.838568 234.913 3.06693C177.832 4.99338 120.751 5.09399 63.7008 7.71051C42.8194 8.65936 21.2835 7.56681 0.698169 11.1897C0.230674 11.2759 -0.0655054 11.6783 0.0124104 12.1096C0.105909 12.5409 0.557859 12.8285 1.02535 12.7423C21.5172 9.13378 42.9753 10.2407 63.7788 9.29189C72.8015 8.87497 81.8241 8.52995 90.8468 8.22804ZM267.326 9.29189C232.373 8.78871 197.42 8.52987 162.436 8.68801C138.438 8.78865 103.469 4.57649 79.627 12.6273C79.7984 12.6273 79.9385 12.6273 80.0631 12.6273C82.8369 12.6561 85.6109 12.6272 88.3847 12.6847C97.2048 12.8285 98.7474 12.9435 110.076 12.8572C139.045 12.6272 168.093 12.0522 197.046 11.1609C220.499 10.4421 243.92 9.79507 267.326 9.29189ZM503.769 7.43726C481.158 3.78563 455.524 4.8784 433.006 3.64202C366.918 -0.023987 301.048 2.41995 234.975 4.64831C205.445 5.65466 175.931 6.15781 146.432 6.776C152.089 6.97727 157.496 7.12101 162.436 7.10663C212.442 6.87661 262.433 7.4949 312.439 8.47251C343.497 8.04121 374.554 7.88307 405.658 8.11309C430.03 8.29999 454.433 8.90381 478.805 8.12748C484.337 7.95497 489.885 7.75362 495.417 7.50922C497.302 7.43733 500.715 7.45164 503.769 7.43726Z" fill="white"/>
</svg>
