<svg width="38" height="38" viewBox="0 0 38 38" fill="none" xmlns="http://www.w3.org/2000/svg">
<g id="Github" clip-path="url(#clip0_49_25)">
<path id="Icon" d="M14.2501 30.0833C6.33341 32.4583 6.33341 26.125 3.16675 25.3333M25.3334 34.8333V28.7058C25.3928 27.9508 25.2908 27.1918 25.0342 26.4793C24.7776 25.7668 24.3722 25.1171 23.8451 24.5733C28.8167 24.0191 34.0417 22.135 34.0417 13.49C34.0413 11.2794 33.191 9.15355 31.6667 7.55248C32.3885 5.61845 32.3375 3.4807 31.5242 1.58332C31.5242 1.58332 29.6559 1.02915 25.3334 3.92665C21.7044 2.94312 17.8791 2.94312 14.2501 3.92665C9.92758 1.02915 8.05925 1.58332 8.05925 1.58332C7.24601 3.4807 7.19498 5.61845 7.91675 7.55248C6.38112 9.16542 5.52991 11.3105 5.54175 13.5375C5.54175 22.1191 10.7667 24.0033 15.7384 24.6208C15.2175 25.1591 14.8157 25.801 14.5593 26.5049C14.3029 27.2087 14.1975 27.9586 14.2501 28.7058V34.8333" stroke="#909090" stroke-width="4" stroke-linecap="round" stroke-linejoin="round"/>
</g>
<defs>
<clipPath id="clip0_49_25">
<rect width="38" height="38" fill="white"/>
</clipPath>
</defs>
</svg>
