<svg width="38" height="38" viewBox="0 0 38 38" fill="none" xmlns="http://www.w3.org/2000/svg">
<g id="Linkedin">
<g id="Icon">
<path d="M25.3334 12.6667C27.853 12.6667 30.2693 13.6676 32.0509 15.4492C33.8325 17.2308 34.8334 19.6471 34.8334 22.1667V33.25H28.5001V22.1667C28.5001 21.3268 28.1664 20.5214 27.5726 19.9275C26.9787 19.3337 26.1733 19 25.3334 19C24.4936 19 23.6881 19.3337 23.0942 19.9275C22.5004 20.5214 22.1667 21.3268 22.1667 22.1667V33.25H15.8334V22.1667C15.8334 19.6471 16.8343 17.2308 18.6159 15.4492C20.3975 13.6676 22.8139 12.6667 25.3334 12.6667Z" stroke="#909090" stroke-width="4" stroke-linecap="round" stroke-linejoin="round"/>
<path d="M9.50008 14.25H3.16675V33.25H9.50008V14.25Z" stroke="#909090" stroke-width="4" stroke-linecap="round" stroke-linejoin="round"/>
<path d="M6.33341 9.50002C8.08232 9.50002 9.50008 8.08226 9.50008 6.33335C9.50008 4.58445 8.08232 3.16669 6.33341 3.16669C4.58451 3.16669 3.16675 4.58445 3.16675 6.33335C3.16675 8.08226 4.58451 9.50002 6.33341 9.50002Z" stroke="#909090" stroke-width="4" stroke-linecap="round" stroke-linejoin="round"/>
</g>
</g>
</svg>
